<mxfile host="app.diagrams.net" modified="2021-07-07T11:23:18.003Z" agent="5.0 (Windows NT 10.0; Win64; x64) AppleWebKit/537.36 (KHTML, like Gecko) Chrome/72.0.3626.119 Safari/537.36" etag="bAoT9it5K4_eYNtGYqI-" version="14.8.4" type="github">
  <diagram id="eo_N5ZzQ6U1ROaBjfXmw" name="第 1 页">
    <mxGraphModel dx="1422" dy="762" grid="1" gridSize="10" guides="1" tooltips="1" connect="1" arrows="1" fold="1" page="1" pageScale="1" pageWidth="827" pageHeight="1169" math="0" shadow="0">
      <root>
        <mxCell id="0" />
        <mxCell id="1" parent="0" />
        <mxCell id="4z9MTvA88N5O7Y9jOaXC-37" style="edgeStyle=orthogonalEdgeStyle;rounded=0;orthogonalLoop=1;jettySize=auto;html=1;entryX=0.5;entryY=0;entryDx=0;entryDy=0;fontSize=12;" parent="1" source="4z9MTvA88N5O7Y9jOaXC-1" target="4z9MTvA88N5O7Y9jOaXC-5" edge="1">
          <mxGeometry relative="1" as="geometry" />
        </mxCell>
        <mxCell id="4z9MTvA88N5O7Y9jOaXC-1" value="项目经理发上线申请邮件" style="rounded=0;whiteSpace=wrap;html=1;" parent="1" vertex="1">
          <mxGeometry x="340" y="120" width="120" height="60" as="geometry" />
        </mxCell>
        <mxCell id="4z9MTvA88N5O7Y9jOaXC-2" value="项目上线流程" style="text;html=1;strokeColor=none;fillColor=none;align=center;verticalAlign=middle;whiteSpace=wrap;rounded=0;fontStyle=1;fontSize=20;" parent="1" vertex="1">
          <mxGeometry x="320" y="20" width="160" height="30" as="geometry" />
        </mxCell>
        <mxCell id="4z9MTvA88N5O7Y9jOaXC-4" style="edgeStyle=orthogonalEdgeStyle;rounded=0;orthogonalLoop=1;jettySize=auto;html=1;fontSize=12;" parent="1" source="4z9MTvA88N5O7Y9jOaXC-3" target="4z9MTvA88N5O7Y9jOaXC-1" edge="1">
          <mxGeometry relative="1" as="geometry" />
        </mxCell>
        <mxCell id="4z9MTvA88N5O7Y9jOaXC-3" value="发送给测试，抄送给产品、徐文超、老板、相关项目成员" style="text;html=1;strokeColor=none;fillColor=none;align=left;verticalAlign=middle;whiteSpace=wrap;rounded=0;fontSize=12;" parent="1" vertex="1">
          <mxGeometry x="600" y="125" width="180" height="50" as="geometry" />
        </mxCell>
        <mxCell id="4z9MTvA88N5O7Y9jOaXC-10" style="edgeStyle=orthogonalEdgeStyle;rounded=0;orthogonalLoop=1;jettySize=auto;html=1;entryX=0.5;entryY=0;entryDx=0;entryDy=0;fontSize=12;" parent="1" source="4z9MTvA88N5O7Y9jOaXC-5" target="4z9MTvA88N5O7Y9jOaXC-9" edge="1">
          <mxGeometry relative="1" as="geometry" />
        </mxCell>
        <mxCell id="NjcYnLOJCJPFEDdWjzOE-9" style="edgeStyle=orthogonalEdgeStyle;rounded=0;orthogonalLoop=1;jettySize=auto;html=1;fillColor=#f8cecc;strokeColor=#b85450;" edge="1" parent="1" source="4z9MTvA88N5O7Y9jOaXC-5" target="NjcYnLOJCJPFEDdWjzOE-1">
          <mxGeometry relative="1" as="geometry">
            <Array as="points">
              <mxPoint x="570" y="280" />
              <mxPoint x="570" y="280" />
            </Array>
          </mxGeometry>
        </mxCell>
        <mxCell id="NjcYnLOJCJPFEDdWjzOE-10" value="不通过" style="edgeLabel;html=1;align=center;verticalAlign=middle;resizable=0;points=[];fontColor=#FF3112;" vertex="1" connectable="0" parent="NjcYnLOJCJPFEDdWjzOE-9">
          <mxGeometry x="0.2" y="2" relative="1" as="geometry">
            <mxPoint x="-12" as="offset" />
          </mxGeometry>
        </mxCell>
        <mxCell id="4z9MTvA88N5O7Y9jOaXC-5" value="测试回复邮件" style="rounded=0;whiteSpace=wrap;html=1;fontSize=12;align=center;" parent="1" vertex="1">
          <mxGeometry x="340" y="270" width="120" height="60" as="geometry" />
        </mxCell>
        <mxCell id="4z9MTvA88N5O7Y9jOaXC-12" style="edgeStyle=orthogonalEdgeStyle;rounded=0;orthogonalLoop=1;jettySize=auto;html=1;fontSize=12;" parent="1" source="4z9MTvA88N5O7Y9jOaXC-9" target="4z9MTvA88N5O7Y9jOaXC-11" edge="1">
          <mxGeometry relative="1" as="geometry" />
        </mxCell>
        <mxCell id="4z9MTvA88N5O7Y9jOaXC-9" value="通过" style="rhombus;whiteSpace=wrap;html=1;fontSize=12;align=center;" parent="1" vertex="1">
          <mxGeometry x="375" y="390" width="50" height="50" as="geometry" />
        </mxCell>
        <mxCell id="4z9MTvA88N5O7Y9jOaXC-17" style="edgeStyle=orthogonalEdgeStyle;rounded=0;orthogonalLoop=1;jettySize=auto;html=1;entryX=0.5;entryY=0;entryDx=0;entryDy=0;fontSize=12;" parent="1" source="4z9MTvA88N5O7Y9jOaXC-11" target="4z9MTvA88N5O7Y9jOaXC-16" edge="1">
          <mxGeometry relative="1" as="geometry" />
        </mxCell>
        <mxCell id="NjcYnLOJCJPFEDdWjzOE-15" style="edgeStyle=orthogonalEdgeStyle;rounded=0;orthogonalLoop=1;jettySize=auto;html=1;entryX=0.25;entryY=1;entryDx=0;entryDy=0;fillColor=#f8cecc;strokeColor=#b85450;" edge="1" parent="1" source="4z9MTvA88N5O7Y9jOaXC-11" target="NjcYnLOJCJPFEDdWjzOE-1">
          <mxGeometry relative="1" as="geometry">
            <Array as="points">
              <mxPoint x="660" y="510" />
            </Array>
          </mxGeometry>
        </mxCell>
        <mxCell id="NjcYnLOJCJPFEDdWjzOE-17" value="不通过" style="edgeLabel;html=1;align=center;verticalAlign=middle;resizable=0;points=[];fontColor=#FF4D17;" vertex="1" connectable="0" parent="NjcYnLOJCJPFEDdWjzOE-15">
          <mxGeometry x="-0.3316" y="3" relative="1" as="geometry">
            <mxPoint as="offset" />
          </mxGeometry>
        </mxCell>
        <mxCell id="4z9MTvA88N5O7Y9jOaXC-11" value="产品回复邮件" style="rounded=0;whiteSpace=wrap;html=1;fontSize=12;align=center;" parent="1" vertex="1">
          <mxGeometry x="340" y="500" width="120" height="60" as="geometry" />
        </mxCell>
        <mxCell id="4z9MTvA88N5O7Y9jOaXC-19" style="edgeStyle=orthogonalEdgeStyle;rounded=0;orthogonalLoop=1;jettySize=auto;html=1;entryX=0.5;entryY=0;entryDx=0;entryDy=0;fontSize=12;" parent="1" source="4z9MTvA88N5O7Y9jOaXC-16" target="4z9MTvA88N5O7Y9jOaXC-18" edge="1">
          <mxGeometry relative="1" as="geometry" />
        </mxCell>
        <mxCell id="4z9MTvA88N5O7Y9jOaXC-21" style="edgeStyle=orthogonalEdgeStyle;rounded=0;orthogonalLoop=1;jettySize=auto;html=1;fontSize=12;" parent="1" source="4z9MTvA88N5O7Y9jOaXC-16" target="4z9MTvA88N5O7Y9jOaXC-20" edge="1">
          <mxGeometry relative="1" as="geometry" />
        </mxCell>
        <mxCell id="4z9MTvA88N5O7Y9jOaXC-16" value="通过" style="rhombus;whiteSpace=wrap;html=1;fontSize=12;align=center;" parent="1" vertex="1">
          <mxGeometry x="375" y="610" width="50" height="50" as="geometry" />
        </mxCell>
        <mxCell id="4z9MTvA88N5O7Y9jOaXC-25" style="edgeStyle=orthogonalEdgeStyle;rounded=0;orthogonalLoop=1;jettySize=auto;html=1;fontSize=12;" parent="1" source="4z9MTvA88N5O7Y9jOaXC-18" target="4z9MTvA88N5O7Y9jOaXC-24" edge="1">
          <mxGeometry relative="1" as="geometry" />
        </mxCell>
        <mxCell id="4z9MTvA88N5O7Y9jOaXC-18" value="项目经理实施上线" style="rounded=0;whiteSpace=wrap;html=1;" parent="1" vertex="1">
          <mxGeometry x="240" y="730" width="120" height="60" as="geometry" />
        </mxCell>
        <mxCell id="4z9MTvA88N5O7Y9jOaXC-20" value="产品经理发送上线申请邮件" style="rounded=0;whiteSpace=wrap;html=1;" parent="1" vertex="1">
          <mxGeometry x="440" y="730" width="120" height="60" as="geometry" />
        </mxCell>
        <mxCell id="4z9MTvA88N5O7Y9jOaXC-23" style="edgeStyle=orthogonalEdgeStyle;rounded=0;orthogonalLoop=1;jettySize=auto;html=1;entryX=1;entryY=0.5;entryDx=0;entryDy=0;fontSize=12;" parent="1" source="4z9MTvA88N5O7Y9jOaXC-22" target="4z9MTvA88N5O7Y9jOaXC-20" edge="1">
          <mxGeometry relative="1" as="geometry" />
        </mxCell>
        <mxCell id="4z9MTvA88N5O7Y9jOaXC-22" value="发送给客户，抄送给项目组相关人员" style="text;html=1;strokeColor=none;fillColor=none;align=center;verticalAlign=middle;whiteSpace=wrap;rounded=0;fontSize=12;" parent="1" vertex="1">
          <mxGeometry x="630" y="735" width="140" height="50" as="geometry" />
        </mxCell>
        <mxCell id="4z9MTvA88N5O7Y9jOaXC-27" style="edgeStyle=orthogonalEdgeStyle;rounded=0;orthogonalLoop=1;jettySize=auto;html=1;fontSize=12;" parent="1" source="4z9MTvA88N5O7Y9jOaXC-24" target="4z9MTvA88N5O7Y9jOaXC-26" edge="1">
          <mxGeometry relative="1" as="geometry" />
        </mxCell>
        <mxCell id="4z9MTvA88N5O7Y9jOaXC-24" value="生产部署升级成功" style="rounded=0;whiteSpace=wrap;html=1;" parent="1" vertex="1">
          <mxGeometry x="240" y="850" width="120" height="60" as="geometry" />
        </mxCell>
        <mxCell id="4z9MTvA88N5O7Y9jOaXC-31" value="通过" style="edgeStyle=orthogonalEdgeStyle;rounded=0;orthogonalLoop=1;jettySize=auto;html=1;fontSize=12;" parent="1" edge="1">
          <mxGeometry relative="1" as="geometry">
            <mxPoint x="298" y="1030" as="sourcePoint" />
            <mxPoint x="298" y="1080" as="targetPoint" />
          </mxGeometry>
        </mxCell>
        <mxCell id="4z9MTvA88N5O7Y9jOaXC-33" style="edgeStyle=orthogonalEdgeStyle;rounded=0;orthogonalLoop=1;jettySize=auto;html=1;entryX=0;entryY=0.5;entryDx=0;entryDy=0;fontSize=12;fillColor=#f8cecc;strokeColor=#b85450;" parent="1" source="4z9MTvA88N5O7Y9jOaXC-26" target="4z9MTvA88N5O7Y9jOaXC-32" edge="1">
          <mxGeometry relative="1" as="geometry" />
        </mxCell>
        <mxCell id="4z9MTvA88N5O7Y9jOaXC-34" value="不通过" style="edgeLabel;html=1;align=center;verticalAlign=middle;resizable=0;points=[];fontSize=12;fontColor=#FF3912;" parent="4z9MTvA88N5O7Y9jOaXC-33" vertex="1" connectable="0">
          <mxGeometry x="-0.1467" relative="1" as="geometry">
            <mxPoint x="6" y="-10" as="offset" />
          </mxGeometry>
        </mxCell>
        <mxCell id="4z9MTvA88N5O7Y9jOaXC-26" value="测试回归、产品验收" style="rounded=0;whiteSpace=wrap;html=1;" parent="1" vertex="1">
          <mxGeometry x="240" y="970" width="120" height="60" as="geometry" />
        </mxCell>
        <mxCell id="4z9MTvA88N5O7Y9jOaXC-28" value="产品经理发送上线成功邮件" style="rounded=0;whiteSpace=wrap;html=1;" parent="1" vertex="1">
          <mxGeometry x="240" y="1080" width="120" height="60" as="geometry" />
        </mxCell>
        <mxCell id="4z9MTvA88N5O7Y9jOaXC-30" style="edgeStyle=orthogonalEdgeStyle;rounded=0;orthogonalLoop=1;jettySize=auto;html=1;entryX=1;entryY=0.5;entryDx=0;entryDy=0;fontSize=12;" parent="1" source="4z9MTvA88N5O7Y9jOaXC-29" target="4z9MTvA88N5O7Y9jOaXC-28" edge="1">
          <mxGeometry relative="1" as="geometry" />
        </mxCell>
        <mxCell id="4z9MTvA88N5O7Y9jOaXC-29" value="发送给客户，抄送给项目组相关人员" style="text;html=1;strokeColor=none;fillColor=none;align=center;verticalAlign=middle;whiteSpace=wrap;rounded=0;fontSize=12;" parent="1" vertex="1">
          <mxGeometry x="425" y="1085" width="140" height="50" as="geometry" />
        </mxCell>
        <mxCell id="4z9MTvA88N5O7Y9jOaXC-35" style="edgeStyle=orthogonalEdgeStyle;rounded=0;orthogonalLoop=1;jettySize=auto;html=1;entryX=1;entryY=0.75;entryDx=0;entryDy=0;fontSize=12;fillColor=#f8cecc;strokeColor=#b85450;" parent="1" source="4z9MTvA88N5O7Y9jOaXC-32" target="4z9MTvA88N5O7Y9jOaXC-26" edge="1">
          <mxGeometry relative="1" as="geometry">
            <Array as="points">
              <mxPoint x="470" y="1015" />
              <mxPoint x="470" y="1015" />
            </Array>
          </mxGeometry>
        </mxCell>
        <mxCell id="4z9MTvA88N5O7Y9jOaXC-36" value="修复反馈" style="edgeLabel;html=1;align=center;verticalAlign=middle;resizable=0;points=[];fontSize=12;" parent="4z9MTvA88N5O7Y9jOaXC-35" vertex="1" connectable="0">
          <mxGeometry x="-0.1733" y="2" relative="1" as="geometry">
            <mxPoint x="-23" as="offset" />
          </mxGeometry>
        </mxCell>
        <mxCell id="4z9MTvA88N5O7Y9jOaXC-32" value="开发修复" style="rounded=0;whiteSpace=wrap;html=1;fontSize=12;align=center;" parent="1" vertex="1">
          <mxGeometry x="510" y="970" width="120" height="60" as="geometry" />
        </mxCell>
        <mxCell id="NjcYnLOJCJPFEDdWjzOE-5" style="edgeStyle=orthogonalEdgeStyle;rounded=0;orthogonalLoop=1;jettySize=auto;html=1;entryX=1;entryY=0.75;entryDx=0;entryDy=0;fillColor=#f8cecc;strokeColor=#b85450;" edge="1" parent="1" source="NjcYnLOJCJPFEDdWjzOE-1" target="4z9MTvA88N5O7Y9jOaXC-5">
          <mxGeometry relative="1" as="geometry">
            <Array as="points">
              <mxPoint x="590" y="315" />
              <mxPoint x="590" y="315" />
            </Array>
          </mxGeometry>
        </mxCell>
        <mxCell id="NjcYnLOJCJPFEDdWjzOE-11" value="修复反馈" style="edgeLabel;html=1;align=center;verticalAlign=middle;resizable=0;points=[];" vertex="1" connectable="0" parent="NjcYnLOJCJPFEDdWjzOE-5">
          <mxGeometry x="-0.2471" y="3" relative="1" as="geometry">
            <mxPoint x="-16" as="offset" />
          </mxGeometry>
        </mxCell>
        <mxCell id="NjcYnLOJCJPFEDdWjzOE-16" style="edgeStyle=orthogonalEdgeStyle;rounded=0;orthogonalLoop=1;jettySize=auto;html=1;entryX=1;entryY=0.75;entryDx=0;entryDy=0;fillColor=#f8cecc;strokeColor=#b85450;" edge="1" parent="1" source="NjcYnLOJCJPFEDdWjzOE-1" target="4z9MTvA88N5O7Y9jOaXC-11">
          <mxGeometry relative="1" as="geometry">
            <Array as="points">
              <mxPoint x="720" y="545" />
            </Array>
          </mxGeometry>
        </mxCell>
        <mxCell id="NjcYnLOJCJPFEDdWjzOE-18" value="修复反馈" style="edgeLabel;html=1;align=center;verticalAlign=middle;resizable=0;points=[];" vertex="1" connectable="0" parent="NjcYnLOJCJPFEDdWjzOE-16">
          <mxGeometry x="-0.4526" relative="1" as="geometry">
            <mxPoint x="-130" y="80" as="offset" />
          </mxGeometry>
        </mxCell>
        <mxCell id="NjcYnLOJCJPFEDdWjzOE-1" value="开发修复" style="rounded=0;whiteSpace=wrap;html=1;fontSize=12;align=center;" vertex="1" parent="1">
          <mxGeometry x="630" y="270" width="120" height="60" as="geometry" />
        </mxCell>
      </root>
    </mxGraphModel>
  </diagram>
</mxfile>
